{
    "asset" : {
        "generator" : "Khronos glTF Blender I/O v3.4.50",
        "version" : "2.0"
    },
    "scene" : 0,
    "scenes" : [
        {
            "extras" : {
                "sprytile_data" : {
                    "auto_reload" : 0,
                    "world_pixels" : 32,
                    "paint_mode" : 3,
                    "normal_mode" : 2,
                    "paint_normal_vector" : [
                        0.0,
                        1.0,
                        0.0
                    ],
                    "paint_up_vector" : [
                        0.0,
                        0.0,
                        1.0
                    ],
                    "lock_normal" : 0,
                    "is_snapping" : 0,
                    "has_selection" : 0,
                    "cursor_flow" : 1,
                    "paint_align" : 5,
                    "axis_plane_settings" : 1
                },
                "sprytile_mats" : [
                    {
                        "mat_id" : "roomset",
                        "grids" : [
                            {
                                "mat_id" : "roomset",
                                "id" : 0,
                                "grid" : [
                                    16,
                                    16
                                ],
                                "auto_pad_offset" : 0.05000000074505806,
                                "padding" : [
                                    0,
                                    0
                                ],
                                "tile_selection" : [
                                    2,
                                    7,
                                    1,
                                    1
                                ]
                            }
                        ],
                        "is_expanded" : 1
                    },
                    {
                        "mat_id" : "tileset_sprite",
                        "grids" : [
                            {
                                "mat_id" : "tileset_sprite",
                                "id" : 1,
                                "grid" : [
                                    32,
                                    32
                                ],
                                "auto_pad_offset" : 0.05000000074505806,
                                "padding" : [
                                    0,
                                    0
                                ],
                                "tile_selection" : [
                                    2,
                                    4,
                                    1,
                                    1
                                ]
                            }
                        ],
                        "is_expanded" : 1
                    }
                ],
                "sprytile_list" : {
                    "display" : [
                        {
                            "mat_id" : "roomset"
                        },
                        {
                            "grid_id" : 0,
                            "parent_mat_name" : "roomset",
                            "parent_mat_id" : "roomset"
                        },
                        {
                            "mat_id" : "tileset_sprite"
                        },
                        {
                            "grid_id" : 1,
                            "parent_mat_name" : "tileset_sprite",
                            "parent_mat_id" : "tileset_sprite"
                        }
                    ],
                    "idx" : 1
                },
                "sprytile_ui" : {
                    "zoom" : 2.62109375,
                    "init_zoom_flag" : 1,
                    "is_dirty" : 0,
                    "use_mouse" : 0,
                    "middle_btn" : 0,
                    "palette_pos" : [
                        1323,
                        186
                    ]
                }
            },
            "name" : "Scene",
            "nodes" : [
                0
            ]
        }
    ],
    "nodes" : [
        {
            "extras" : {
                "sprytile_gridid" : 0
            },
            "mesh" : 0,
            "name" : "Cube"
        }
    ],
    "materials" : [
        {
            "alphaCutoff" : 0,
            "alphaMode" : "MASK",
            "doubleSided" : true,
            "emissiveFactor" : [
                1,
                1,
                1
            ],
            "emissiveTexture" : {
                "index" : 0
            },
            "name" : "roomset",
            "pbrMetallicRoughness" : {
                "baseColorFactor" : [
                    0,
                    0,
                    0,
                    1
                ]
            }
        },
        {
            "alphaCutoff" : 0.5,
            "alphaMode" : "MASK",
            "doubleSided" : true,
            "emissiveFactor" : [
                1,
                1,
                1
            ],
            "emissiveTexture" : {
                "index" : 1
            },
            "name" : "tileset_sprite",
            "pbrMetallicRoughness" : {
                "baseColorFactor" : [
                    0,
                    0,
                    0,
                    1
                ]
            }
        }
    ],
    "meshes" : [
        {
            "name" : "Cube",
            "primitives" : [
                {
                    "attributes" : {
                        "POSITION" : 0,
                        "TEXCOORD_0" : 1,
                        "NORMAL" : 2,
                        "TANGENT" : 3
                    },
                    "indices" : 4,
                    "material" : 0
                },
                {
                    "attributes" : {
                        "POSITION" : 5,
                        "TEXCOORD_0" : 6,
                        "NORMAL" : 7,
                        "TANGENT" : 8
                    },
                    "indices" : 9,
                    "material" : 1
                }
            ]
        }
    ],
    "textures" : [
        {
            "sampler" : 0,
            "source" : 0
        },
        {
            "sampler" : 0,
            "source" : 1
        }
    ],
    "images" : [
        {
            "mimeType" : "image/png",
            "name" : "roomset.png",
            "uri" : "../../models/roomset.png"
        },
        {
            "mimeType" : "image/png",
            "name" : "tileset_sprite.png",
            "uri" : "../../models/tileset_sprite.png"
        }
    ],
    "accessors" : [
        {
            "bufferView" : 0,
            "componentType" : 5126,
            "count" : 1564,
            "max" : [
                39,
                12.5,
                3
            ],
            "min" : [
                -3,
                -1,
                -9.5
            ],
            "type" : "VEC3"
        },
        {
            "bufferView" : 1,
            "componentType" : 5126,
            "count" : 1564,
            "type" : "VEC2"
        },
        {
            "bufferView" : 2,
            "componentType" : 5126,
            "count" : 1564,
            "type" : "VEC3"
        },
        {
            "bufferView" : 3,
            "componentType" : 5126,
            "count" : 1564,
            "type" : "VEC4"
        },
        {
            "bufferView" : 4,
            "componentType" : 5123,
            "count" : 2346,
            "type" : "SCALAR"
        },
        {
            "bufferView" : 5,
            "componentType" : 5126,
            "count" : 52,
            "max" : [
                2,
                0,
                2
            ],
            "min" : [
                -2,
                0,
                -2
            ],
            "type" : "VEC3"
        },
        {
            "bufferView" : 6,
            "componentType" : 5126,
            "count" : 52,
            "type" : "VEC2"
        },
        {
            "bufferView" : 7,
            "componentType" : 5126,
            "count" : 52,
            "type" : "VEC3"
        },
        {
            "bufferView" : 8,
            "componentType" : 5126,
            "count" : 52,
            "type" : "VEC4"
        },
        {
            "bufferView" : 9,
            "componentType" : 5123,
            "count" : 78,
            "type" : "SCALAR"
        }
    ],
    "bufferViews" : [
        {
            "buffer" : 0,
            "byteLength" : 18768,
            "byteOffset" : 0,
            "target" : 34962
        },
        {
            "buffer" : 0,
            "byteLength" : 12512,
            "byteOffset" : 18768,
            "target" : 34962
        },
        {
            "buffer" : 0,
            "byteLength" : 18768,
            "byteOffset" : 31280,
            "target" : 34962
        },
        {
            "buffer" : 0,
            "byteLength" : 25024,
            "byteOffset" : 50048,
            "target" : 34962
        },
        {
            "buffer" : 0,
            "byteLength" : 4692,
            "byteOffset" : 75072,
            "target" : 34963
        },
        {
            "buffer" : 0,
            "byteLength" : 624,
            "byteOffset" : 79764,
            "target" : 34962
        },
        {
            "buffer" : 0,
            "byteLength" : 416,
            "byteOffset" : 80388,
            "target" : 34962
        },
        {
            "buffer" : 0,
            "byteLength" : 624,
            "byteOffset" : 80804,
            "target" : 34962
        },
        {
            "buffer" : 0,
            "byteLength" : 832,
            "byteOffset" : 81428,
            "target" : 34962
        },
        {
            "buffer" : 0,
            "byteLength" : 156,
            "byteOffset" : 82260,
            "target" : 34963
        }
    ],
    "samplers" : [
        {
            "magFilter" : 9728,
            "minFilter" : 9984
        }
    ],
    "buffers" : [
        {
            "byteLength" : 82416,
            "uri" : "roomv2-432710b18674fb93e721c004723309c3.bin"
        }
    ]
}
