{
    "asset" : {
        "generator" : "Khronos glTF Blender I/O v3.4.50",
        "version" : "2.0"
    },
    "scene" : 0,
    "scenes" : [
        {
            "extras" : {
                "sprytile_data" : {
                    "auto_reload" : 0,
                    "world_pixels" : 32,
                    "paint_mode" : 3,
                    "normal_mode" : 3,
                    "paint_normal_vector" : [
                        0.0,
                        0.0,
                        1.0
                    ],
                    "paint_up_vector" : [
                        0.0,
                        1.0,
                        0.0
                    ],
                    "lock_normal" : 0,
                    "is_snapping" : 0,
                    "has_selection" : 0
                },
                "sprytile_mats" : [
                    {
                        "mat_id" : "roomset",
                        "grids" : [
                            {
                                "mat_id" : "roomset",
                                "id" : 0,
                                "grid" : [
                                    32,
                                    32
                                ],
                                "auto_pad_offset" : 0.05000000074505806,
                                "padding" : [
                                    0,
                                    0
                                ],
                                "tile_selection" : [
                                    0,
                                    3,
                                    1,
                                    1
                                ]
                            }
                        ],
                        "is_expanded" : 1
                    }
                ],
                "sprytile_list" : {
                    "display" : [
                        {
                            "mat_id" : "roomset"
                        },
                        {
                            "grid_id" : 0,
                            "parent_mat_name" : "roomset",
                            "parent_mat_id" : "roomset"
                        }
                    ],
                    "idx" : 1
                },
                "sprytile_ui" : {
                    "zoom" : 2.0,
                    "init_zoom_flag" : 1,
                    "is_dirty" : 1,
                    "use_mouse" : 0,
                    "middle_btn" : 0,
                    "palette_pos" : [
                        1070,
                        217
                    ]
                }
            },
            "name" : "Scene",
            "nodes" : [
                0,
                1
            ]
        }
    ],
    "nodes" : [
        {
            "extras" : {
                "sprytile_gridid" : 0
            },
            "mesh" : 0,
            "name" : "Cube"
        },
        {
            "camera" : 0,
            "name" : "Camera",
            "rotation" : [
                -0.20997299253940582,
                0.3857799470424652,
                0.09062844514846802,
                0.8937962055206299
            ],
            "translation" : [
                7.358891487121582,
                4.958309173583984,
                6.925790786743164
            ]
        }
    ],
    "cameras" : [
        {
            "name" : "Camera",
            "perspective" : {
                "aspectRatio" : 1.7777777777777777,
                "yfov" : 0.39959652046304894,
                "zfar" : 100,
                "znear" : 0.10000000149011612
            },
            "type" : "perspective"
        }
    ],
    "materials" : [
        {
            "alphaCutoff" : 0,
            "alphaMode" : "MASK",
            "doubleSided" : true,
            "emissiveFactor" : [
                1,
                1,
                1
            ],
            "emissiveTexture" : {
                "index" : 0
            },
            "name" : "roomset",
            "pbrMetallicRoughness" : {
                "baseColorFactor" : [
                    0,
                    0,
                    0,
                    1
                ]
            }
        }
    ],
    "meshes" : [
        {
            "name" : "Cube",
            "primitives" : [
                {
                    "attributes" : {
                        "POSITION" : 0,
                        "TEXCOORD_0" : 1,
                        "NORMAL" : 2,
                        "TANGENT" : 3
                    },
                    "indices" : 4,
                    "material" : 0
                }
            ]
        }
    ],
    "textures" : [
        {
            "sampler" : 0,
            "source" : 0
        }
    ],
    "images" : [
        {
            "mimeType" : "image/png",
            "name" : "roomset.png",
            "uri" : "../../models/roomset.png"
        }
    ],
    "accessors" : [
        {
            "bufferView" : 0,
            "componentType" : 5126,
            "count" : 224,
            "max" : [
                1,
                4,
                1
            ],
            "min" : [
                -1,
                -1,
                -1
            ],
            "type" : "VEC3"
        },
        {
            "bufferView" : 1,
            "componentType" : 5126,
            "count" : 224,
            "type" : "VEC2"
        },
        {
            "bufferView" : 2,
            "componentType" : 5126,
            "count" : 224,
            "type" : "VEC3"
        },
        {
            "bufferView" : 3,
            "componentType" : 5126,
            "count" : 224,
            "type" : "VEC4"
        },
        {
            "bufferView" : 4,
            "componentType" : 5123,
            "count" : 336,
            "type" : "SCALAR"
        }
    ],
    "bufferViews" : [
        {
            "buffer" : 0,
            "byteLength" : 2688,
            "byteOffset" : 0,
            "target" : 34962
        },
        {
            "buffer" : 0,
            "byteLength" : 1792,
            "byteOffset" : 2688,
            "target" : 34962
        },
        {
            "buffer" : 0,
            "byteLength" : 2688,
            "byteOffset" : 4480,
            "target" : 34962
        },
        {
            "buffer" : 0,
            "byteLength" : 3584,
            "byteOffset" : 7168,
            "target" : 34962
        },
        {
            "buffer" : 0,
            "byteLength" : 672,
            "byteOffset" : 10752,
            "target" : 34963
        }
    ],
    "samplers" : [
        {
            "magFilter" : 9728,
            "minFilter" : 9984
        }
    ],
    "buffers" : [
        {
            "byteLength" : 11424,
            "uri" : "wallSegmentTextured-6b5260e8821633ccc4227c78796dca26.bin"
        }
    ]
}
