# Blender v2.93.14 OBJ File: 'wallSegmentTextured.blend'
# www.blender.org
mtllib wallSegmentTextured.mtl
o Cube
v -1.000000 0.000000 -1.000000
v 0.000000 1.000000 -1.000000
v 1.000000 3.000000 1.000000
v 1.000000 0.000000 -1.000000
v -1.000000 0.000000 1.000000
v 1.000000 1.000000 1.000000
v -1.000000 3.000000 1.000000
v 0.000000 0.000000 0.000000
v -1.000000 2.000000 1.000000
v 0.000000 0.000000 -1.000000
v -1.000000 1.000000 -1.000000
v -1.000000 2.000000 0.000000
v 1.000000 1.000000 -1.000000
v -1.000000 1.000000 0.000000
v -1.000000 0.000000 0.000000
v 0.000000 2.000000 -1.000000
v 0.000000 2.000000 1.000000
v 1.000000 2.000000 -1.000000
v -1.000000 2.000000 -1.000000
v -1.000000 3.000000 0.000000
v 1.000000 2.000000 1.000000
v 1.000000 0.000000 0.000000
v 1.000000 2.000000 0.000000
v -1.000000 1.000000 1.000000
v 0.000000 1.000000 1.000000
v 0.000000 0.000000 1.000000
v 1.000000 3.000000 -1.000000
v 1.000000 3.000000 0.000000
v 1.000000 1.000000 0.000000
v 1.000000 0.000000 1.000000
v -1.000000 3.000000 -1.000000
v 0.000000 3.000000 1.000000
v 0.000000 3.000000 0.000000
v 0.000000 3.000000 -1.000000
vt 0.000195 0.750195
vt 0.249805 0.750195
vt 0.249805 0.999805
vt 0.000195 0.999805
vt 0.000195 0.750195
vt 0.249805 0.750195
vt 0.249805 0.999805
vt 0.000195 0.999805
vt 0.000195 0.750195
vt 0.249805 0.750195
vt 0.249805 0.999805
vt 0.000195 0.999805
vt 0.000195 0.750195
vt 0.249805 0.750195
vt 0.249805 0.999805
vt 0.000195 0.999805
vt 0.000195 0.750195
vt 0.249805 0.999805
vt 0.000195 0.999805
vt 0.000195 0.750195
vt 0.249805 0.750195
vt 0.249805 0.999805
vt 0.000195 0.999805
vt 0.000195 0.750195
vt 0.249805 0.750195
vt 0.249805 0.999805
vt 0.000195 0.999805
vt 0.000195 0.750195
vt 0.249805 0.750195
vt 0.249805 0.999805
vt 0.000195 0.999805
vt 0.249805 0.999805
vt 0.000195 0.999805
vt 0.249805 0.999805
vt 0.000195 0.999805
vt 0.000195 0.750195
vt 0.249805 0.750195
vt 0.249805 0.999805
vt 0.000195 0.999805
vt 0.000195 0.750195
vt 0.249805 0.750195
vt 0.249805 0.999805
vt 0.000195 0.999805
vt 0.000195 0.750195
vt 0.249805 0.750195
vt 0.249805 0.999805
vt 0.000195 0.999805
vt 0.000195 0.750195
vt 0.249805 0.750195
vt 0.249805 0.999805
vt 0.000195 0.999805
vt 0.000195 0.750195
vt 0.249805 0.750195
vt 0.249805 0.999805
vt 0.000195 0.999805
vt 0.000195 0.750195
vt 0.249805 0.750195
vt 0.249805 0.999805
vt 0.000195 0.999805
vt 0.000195 0.750195
vt 0.249805 0.750195
vt 0.249805 0.999805
vt 0.000195 0.999805
vt 0.000195 0.750195
vt 0.249805 0.750195
vt 0.249805 0.999805
vt 0.000195 0.999805
vt 0.000195 0.750195
vt 0.249805 0.750195
vt 0.249805 0.999805
vt 0.000195 0.999805
vt 0.000195 0.750195
vt 0.249805 0.750195
vt 0.249805 0.999805
vt 0.000195 0.999805
vt 0.000195 0.750195
vt 0.249805 0.750195
vt 0.249805 0.999805
vt 0.000195 0.999805
vt 0.000195 0.750195
vt 0.249805 0.750195
vt 0.249805 0.999805
vt 0.000195 0.999805
vt 0.000195 0.750195
vt 0.249805 0.750195
vt 0.249805 0.999805
vt 0.000195 0.999805
vt 0.249805 0.750195
vt 0.249805 0.999805
vt 0.000195 0.999805
vt 0.000195 0.750195
vt 0.249805 0.750195
vt 0.249805 0.999805
vt 0.000195 0.999805
vt 0.000195 0.750195
vt 0.249805 0.750195
vt 0.249805 0.999805
vt 0.000195 0.999805
vt 0.000195 0.750195
vt 0.249805 0.750195
vt 0.249805 0.999805
vt 0.000195 0.999805
vt 0.000195 0.750195
vt 0.249805 0.750195
vt 0.249805 0.999805
vt 0.000195 0.999805
vt 0.000195 0.750195
vt 0.249805 0.750195
vt 0.000195 0.750195
vt 0.249805 0.750195
vt 0.000195 0.750195
vt 0.249805 0.750195
vt 0.000195 0.999805
vt 0.000195 0.750195
vt 0.249805 0.750195
vt 0.249805 0.999805
vn 0.0000 -1.0000 0.0000
vn 0.0000 0.0000 1.0000
vn 1.0000 0.0000 0.0000
vn -1.0000 0.0000 0.0000
vn 0.0000 0.0000 -1.0000
vn 0.0000 1.0000 0.0000
g Cube_Cube_roomset
usemtl roomset
s off
f 8/1/1 10/2/1 4/3/1 22/4/1
f 26/5/1 8/6/1 22/7/1 30/8/1
f 5/9/1 15/10/1 8/11/1 26/12/1
f 15/13/1 1/14/1 10/15/1 8/16/1
f 1/17/2 10/2/2 2/18/2 11/19/2
f 10/20/2 4/21/2 13/22/2 2/23/2
f 2/24/2 13/25/2 18/26/2 16/27/2
f 11/28/2 2/29/2 16/30/2 19/31/2
f 15/13/3 1/14/3 11/32/3 14/33/3
f 5/9/3 15/10/3 14/34/3 24/35/3
f 24/36/3 14/37/3 12/38/3 9/39/3
f 14/40/3 11/41/3 19/42/3 12/43/3
f 12/44/3 19/45/3 31/46/3 20/47/3
f 9/48/3 12/49/3 20/50/3 7/51/3
f 19/52/2 16/53/2 34/54/2 31/55/2
f 16/56/2 18/57/2 27/58/2 34/59/2
f 4/60/4 22/61/4 29/62/4 13/63/4
f 22/64/4 30/65/4 6/66/4 29/67/4
f 29/68/4 6/69/4 21/70/4 23/71/4
f 23/72/4 21/73/4 3/74/4 28/75/4
f 18/76/4 23/77/4 28/78/4 27/79/4
f 13/80/4 29/81/4 23/82/4 18/83/4
f 30/84/5 26/85/5 25/86/5 6/87/5
f 26/5/5 5/88/5 24/89/5 25/90/5
f 25/91/5 24/92/5 9/93/5 17/94/5
f 17/95/5 9/96/5 7/97/5 32/98/5
f 21/99/5 17/100/5 32/101/5 3/102/5
f 6/103/5 25/104/5 17/105/5 21/106/5
f 28/107/6 33/108/6 32/101/6 3/102/6
f 33/109/6 20/110/6 7/97/6 32/98/6
f 34/111/6 31/112/6 20/50/6 33/113/6
f 27/114/6 34/115/6 33/116/6 28/75/6
